<?xml version="1.0" encoding="utf-8"?>
<!-- Generator: Adobe Illustrator 15.1.0, SVG Export Plug-In . SVG Version: 6.00 Build 0)  -->
<!DOCTYPE svg PUBLIC "-//W3C//DTD SVG 1.1//EN" "http://www.w3.org/Graphics/SVG/1.1/DTD/svg11.dtd">
<svg version="1.1" id="Layer_1" xmlns="http://www.w3.org/2000/svg" xmlns:xlink="http://www.w3.org/1999/xlink" x="0px" y="0px"
	 width="320px" height="83.57px" viewBox="0 0 320 83.57" enable-background="new 0 0 320 83.57" xml:space="preserve">
<g>
	<defs>
		<rect id="SVGID_1_" width="320" height="83.57"/>
	</defs>
	<clipPath id="SVGID_2_">
		<use xlink:href="#SVGID_1_"  overflow="visible"/>
	</clipPath>
	<path clip-path="url(#SVGID_2_)" fill="#FFFFFF" d="M112.431,30.873c-1.822,0-3.563,0.308-5.2,0.898v7.866
		c1.156-0.589,2.454-0.911,3.819-0.911c4.933,0,8.926,4.194,8.926,9.368c0,5.173-3.993,9.368-8.926,9.368
		c-1.366,0-2.666-0.322-3.819-0.911c-3.015-1.501-5.092-4.718-5.092-8.457V34.693V20.741c0-0.948-0.769-1.715-1.716-1.715h-5.495
		c-0.94,0-1.702,0.762-1.702,1.702v42.216c0,0.939,0.762,1.701,1.702,1.701h5.495c0.943,0,1.716-0.771,1.716-1.715v-1.461
		c1.501,1.273,3.215,2.278,5.092,2.922c1.635,0.589,3.378,0.897,5.2,0.897c9.06,0,16.417-7.706,16.417-17.207
		C128.848,38.579,121.49,30.873,112.431,30.873"/>
	<path clip-path="url(#SVGID_2_)" fill="#FFFFFF" d="M140.218,18.282c-1.407,0-2.601,0.469-3.578,1.42
		c-0.993,0.938-1.488,2.077-1.488,3.391c0,1.38,0.496,2.533,1.488,3.484c0.978,0.951,2.171,1.394,3.578,1.394
		c1.38,0,2.532-0.442,3.497-1.394c0.966-0.952,1.448-2.104,1.448-3.484c0-1.314-0.482-2.453-1.448-3.391
		C142.75,18.751,141.598,18.282,140.218,18.282"/>
	<path clip-path="url(#SVGID_2_)" fill="#FFFFFF" d="M142.938,31.536h-5.415c-0.577,0-1.019,0.174-1.34,0.496
		c-0.308,0.308-0.483,0.763-0.483,1.313v29.498c0,0.549,0.175,1.005,0.483,1.313c0.321,0.335,0.763,0.496,1.34,0.496h5.415
		c0.549,0,1.004-0.161,1.313-0.496c0.335-0.308,0.496-0.764,0.496-1.313V33.345c0-0.55-0.161-1.005-0.496-1.313
		C143.943,31.71,143.488,31.536,142.938,31.536"/>
	<path clip-path="url(#SVGID_2_)" fill="#FFFFFF" d="M168.629,30.946h-4.839v-7.063c0-0.563-0.147-0.992-0.469-1.327
		c-0.335-0.322-0.764-0.469-1.326-0.469h-5.307c-0.55,0-1.005,0.147-1.34,0.469c-0.309,0.335-0.47,0.764-0.47,1.327v7.063h-2.224
		c-0.578,0-1.006,0.161-1.34,0.469c-0.309,0.335-0.47,0.764-0.47,1.34v4.275c0,0.563,0.161,0.992,0.47,1.327
		c0.334,0.322,0.763,0.469,1.34,0.469h2.224v17.851c0,2.293,0.457,4.021,1.314,5.187c0.884,1.153,2.104,1.984,3.631,2.412
		c1.515,0.43,3.645,0.657,6.34,0.657c0.991,0,1.741-0.014,2.277-0.054c0.563-0.04,0.992-0.228,1.301-0.576
		c0.295-0.335,0.456-0.791,0.456-1.34V58.97c0-1.153-0.645-1.757-1.877-1.757h-0.429c-1.648,0-2.734-0.415-3.27-1.232
		c-0.537-0.817-0.832-2.063-0.832-3.712V38.827h4.839c0.563,0,0.991-0.147,1.326-0.469c0.322-0.335,0.47-0.764,0.47-1.327v-4.275
		c0-0.576-0.147-1.005-0.47-1.34C169.621,31.107,169.192,30.946,168.629,30.946"/>
	<path clip-path="url(#SVGID_2_)" fill="#FFFFFF" d="M246.011,31.603h-27.42c-0.577,0-1.02,0.161-1.341,0.496
		c-0.335,0.308-0.482,0.763-0.482,1.313v4.155c0,0.563,0.147,1.018,0.482,1.327c0.321,0.322,0.764,0.496,1.341,0.496h13.723
		l-16.443,23.078c-0.295,0.416-0.43,0.777-0.43,1.152c0,0.309,0.12,0.576,0.362,0.737c0.255,0.188,0.563,0.295,0.965,0.295h27.85
		c0.576,0,1.004-0.161,1.34-0.496c0.214-0.228,0.388-0.536,0.442-0.925c0.026-0.12,0.026-0.255,0.026-0.388v-4.223
		c0-0.575-0.161-1.018-0.469-1.34c-0.336-0.308-0.764-0.482-1.34-0.482h-14.394l16.511-23.011c0.2-0.309,0.335-0.603,0.388-0.885
		c0.028-0.094,0.028-0.188,0.028-0.268c0-0.335-0.108-0.577-0.295-0.764C246.654,31.71,246.36,31.603,246.011,31.603"/>
	<path clip-path="url(#SVGID_2_)" fill="#FFFFFF" d="M280.374,31.603h-27.448c-0.549,0-0.977,0.161-1.313,0.496
		c-0.241,0.228-0.389,0.536-0.455,0.925c-0.014,0.12-0.014,0.241-0.014,0.388v4.155c0,0.563,0.134,1.018,0.469,1.327
		c0.336,0.322,0.764,0.496,1.313,0.496h13.765l-16.457,23.078c-0.228,0.309-0.35,0.59-0.416,0.858
		c-0.014,0.106-0.014,0.214-0.014,0.294c0,0.309,0.12,0.576,0.362,0.737c0.228,0.188,0.563,0.295,0.979,0.295h27.835
		c0.55,0,1.005-0.161,1.341-0.496c0.308-0.308,0.468-0.764,0.468-1.313v-4.223c0-0.575-0.16-1.018-0.468-1.34
		c-0.336-0.308-0.791-0.482-1.341-0.482h-14.42l16.538-23.011c0.268-0.415,0.414-0.804,0.414-1.152c0-0.335-0.107-0.577-0.294-0.764
		C281.016,31.71,280.735,31.603,280.374,31.603"/>
	<path clip-path="url(#SVGID_2_)" fill="#FFFFFF" d="M208.742,31.502h-5.495c-0.942,0-1.714,0.772-1.714,1.716v1.46
		c-1.502-1.273-3.217-2.278-5.094-2.922c-1.635-0.59-3.377-0.897-5.2-0.897c-9.06,0-16.417,7.706-16.417,17.208
		c0,9.502,7.357,17.208,16.417,17.208c1.823,0,3.565-0.309,5.2-0.898v-7.867c-1.151,0.59-2.452,0.912-3.819,0.912
		c-4.932,0-8.926-4.195-8.926-9.368c0-5.172,3.994-9.367,8.926-9.367c1.367,0,2.667,0.321,3.819,0.911
		c3.016,1.501,5.094,4.718,5.094,8.456v13.402v1.501c0,0.947,0.767,1.716,1.714,1.716h5.495c0.939,0,1.702-0.763,1.702-1.702V33.205
		C210.444,32.265,209.681,31.502,208.742,31.502"/>
	<path clip-path="url(#SVGID_2_)" fill="#FFFFFF" d="M318.297,31.502h-5.495c-0.942,0-1.715,0.772-1.715,1.716v1.46
		c-1.501-1.273-3.216-2.278-5.093-2.922c-1.635-0.59-3.377-0.897-5.199-0.897c-9.06,0-16.417,7.706-16.417,17.208
		c0,9.502,7.357,17.208,16.417,17.208c1.822,0,3.565-0.309,5.199-0.898v-7.867c-1.151,0.59-2.452,0.912-3.818,0.912
		c-4.934,0-8.927-4.195-8.927-9.368c0-5.172,3.993-9.367,8.927-9.367c1.366,0,2.666,0.321,3.818,0.911
		c3.016,1.501,5.093,4.718,5.093,8.456v13.402v1.501c0,0.947,0.768,1.716,1.715,1.716h5.495c0.94,0,1.702-0.763,1.702-1.702V33.205
		C320,32.265,319.238,31.502,318.297,31.502"/>
</g>
<g>
	<defs>
		<path id="SVGID_3_" d="M31.608,21.559v-6.695c0-2.215,1.191-4.307,3.08-5.461l0.37-0.224c1.997-1.212,4.488-1.235,6.499-0.073
			l0.08,0.043c1.982,1.14,3.202,3.26,3.202,5.541v6.869l7.596,4.386l5.947-3.442c1.982-1.133,4.429-1.133,6.397,0l0.218,0.138
			c1.975,1.14,3.195,3.26,3.195,5.534c0,2.244-1.198,4.35-3.13,5.496l-6.208,3.667l0.051,8.75l6.092,3.515
			c1.975,1.133,3.195,3.26,3.195,5.526v0.269c0,2.265-1.22,4.393-3.195,5.532l-0.218,0.132c-1.968,1.132-4.415,1.132-6.397,0
			l-5.947-3.442l-7.596,4.393v6.695c0,2.215-1.176,4.313-3.072,5.461l-0.37,0.225c-1.997,1.205-4.487,1.234-6.506,0.072
			l-0.079-0.051c-1.969-1.133-3.203-3.26-3.203-5.532v-6.87l-7.595-4.393l-5.946,3.442c-1.968,1.132-4.422,1.132-6.383,0
			l-0.225-0.139c-1.975-1.133-3.203-3.261-3.203-5.525c0-2.252,1.199-4.35,3.137-5.504l6.201-3.668l-0.051-8.75l-6.085-3.515
			c-1.975-1.133-3.203-3.252-3.203-5.526v-0.261c0-2.273,1.228-4.394,3.203-5.534l0.218-0.138c1.968-1.133,4.422-1.133,6.39,0
			l5.946,3.442L31.608,21.559z M38.376,0c-2.68,0-5.309,0.734-7.595,2.113L30.41,2.338c-3.826,2.323-6.426,6.368-6.949,10.833
			l-0.305,2.527l-2.316-1.031c-1.888-0.842-3.892-1.271-5.977-1.271c-2.57,0-5.097,0.682-7.312,1.961l-0.232,0.13
			C2.836,18.076,0.041,22.89,0,28.061v0.489c0.037,4.692,2.348,9.115,6.187,11.838l2.15,1.525l-2.15,1.525
			C2.348,46.167,0.037,50.583,0,55.283v0.228c0.041,5.171,2.836,9.977,7.333,12.571l0.211,0.131
			c2.215,1.278,4.756,1.953,7.327,1.953c2.07,0,4.073-0.428,5.954-1.256l2.346-1.038l0.269,2.556
			c0.494,4.641,3.202,8.801,7.225,11.132l0.094,0.051c2.222,1.285,4.756,1.96,7.327,1.96c2.68,0,5.3-0.732,7.596-2.127l0.363-0.219
			c3.833-2.316,6.426-6.368,6.949-10.833l0.298-2.527l2.324,1.039c1.88,0.835,3.885,1.263,5.968,1.263
			c2.571,0,5.105-0.683,7.341-1.968l0.204-0.123c4.517-2.607,7.32-7.465,7.32-12.678v-0.269c0-4.729-2.31-9.201-6.18-11.952
			l-2.157-1.526l2.157-1.524c3.87-2.745,6.18-7.218,6.18-11.952c0-5.221-2.803-10.079-7.356-12.7l-0.189-0.116
			c-2.214-1.279-4.749-1.961-7.32-1.961c-2.076,0-4.073,0.428-5.946,1.256l-2.346,1.046l-0.276-2.556
			c-0.493-4.647-3.203-8.808-7.262-11.153l-0.064-0.029C43.466,0.668,40.939,0,38.376,0z"/>
	</defs>
	<clipPath id="SVGID_4_">
		<use xlink:href="#SVGID_3_"  overflow="visible"/>
	</clipPath>
	
		<linearGradient id="SVGID_5_" gradientUnits="userSpaceOnUse" x1="-156.1743" y1="123.5513" x2="-155.6677" y2="123.5513" gradientTransform="matrix(-82.6625 -97.8724 -97.8724 82.6625 -759.9656 -25433.6953)">
		<stop  offset="0" style="stop-color:#7EC2B1"/>
		<stop  offset="1" style="stop-color:#DFE67D"/>
	</linearGradient>
	<polygon clip-path="url(#SVGID_4_)" fill="url(#SVGID_5_)" points="31.828,121.255 -41.196,34.794 44.619,-37.685 117.643,48.777 	
		"/>
</g>
<g>
	<defs>
		<polygon id="SVGID_6_" points="25.865,31.671 38.223,38.798 50.582,31.671 38.223,24.534 		"/>
	</defs>
	<clipPath id="SVGID_7_">
		<use xlink:href="#SVGID_6_"  overflow="visible"/>
	</clipPath>
	
		<linearGradient id="SVGID_8_" gradientUnits="userSpaceOnUse" x1="-156.1733" y1="123.6011" x2="-155.6674" y2="123.6011" gradientTransform="matrix(-82.6625 -97.8724 -97.8724 82.6625 -750.0906 -25442)">
		<stop  offset="0" style="stop-color:#7EC2B1"/>
		<stop  offset="1" style="stop-color:#DFE67D"/>
	</linearGradient>
	<polygon clip-path="url(#SVGID_7_)" fill="url(#SVGID_8_)" points="36.156,50.983 18.833,30.473 40.291,12.35 57.613,32.859 	"/>
</g>
<g>
	<defs>
		<polygon id="SVGID_9_" points="23.29,50.394 35.648,57.532 35.648,43.257 23.29,36.131 		"/>
	</defs>
	<clipPath id="SVGID_10_">
		<use xlink:href="#SVGID_9_"  overflow="visible"/>
	</clipPath>
	
		<linearGradient id="SVGID_11_" gradientUnits="userSpaceOnUse" x1="-156.1743" y1="123.4761" x2="-155.6671" y2="123.4761" gradientTransform="matrix(-82.6625 -97.8724 -97.8724 82.6625 -774.9656 -25421.0313)">
		<stop  offset="0" style="stop-color:#7EC2B1"/>
		<stop  offset="1" style="stop-color:#DFE67D"/>
	</linearGradient>
	<polygon clip-path="url(#SVGID_10_)" fill="url(#SVGID_11_)" points="28.436,63.625 12.74,45.041 30.503,30.038 46.198,48.622 	"/>
</g>
<g>
	<defs>
		<polygon id="SVGID_12_" points="40.798,43.257 40.798,57.532 53.157,50.394 53.157,36.131 		"/>
	</defs>
	<clipPath id="SVGID_13_">
		<use xlink:href="#SVGID_12_"  overflow="visible"/>
	</clipPath>
	
		<linearGradient id="SVGID_14_" gradientUnits="userSpaceOnUse" x1="-156.1738" y1="123.5786" x2="-155.6673" y2="123.5786" gradientTransform="matrix(-82.6625 -97.8724 -97.8724 82.6625 -754.7156 -25438.0625)">
		<stop  offset="0" style="stop-color:#7EC2B1"/>
		<stop  offset="1" style="stop-color:#DFE67D"/>
	</linearGradient>
	<polygon clip-path="url(#SVGID_13_)" fill="url(#SVGID_14_)" points="45.944,63.625 30.248,45.041 48.011,30.038 63.707,48.622 	
		"/>
</g>
</svg>
